Coordinates
version=1
nRows=8
nColumns=36
inDegrees=yes

Units are S.I. units (second, meters, Newtons, ...)
If the header above contains a line with 'inDegrees', this indicates whether rotational values are in degrees (yes) or radians (no).

endheader
time	pelvis_tilt	pelvis_list	pelvis_rotation	pelvis_tx	pelvis_ty	pelvis_tz	hip_flexion_r	hip_adduction_r	hip_rotation_r	knee_angle_r	knee_angle_r_beta	ankle_angle_r	subtalar_angle_r	mtp_angle_r	hip_flexion_l	hip_adduction_l	hip_rotation_l	knee_angle_l	knee_angle_l_beta	ankle_angle_l	subtalar_angle_l	mtp_angle_l	lumbar_extension	lumbar_bending	lumbar_rotation	arm_flex_r	arm_add_r	arm_rot_r	elbow_flex_r	pro_sup_r	arm_flex_l	arm_add_l	arm_rot_l	elbow_flex_l	pro_sup_l
      0.32000000	     -7.80137792	     -5.21482812	      7.43491071	     -2.87148996	      1.00461329	      0.15600262	     49.25423823	     -3.55862470	    -20.69562147	     28.30407489	      0.49399930	     -5.65589612	      3.91384558	    -26.31988942	    -11.42690259	    -10.52677737	      2.84645223	    104.43500718	      1.82273473	    -18.94231724	     -3.95047899	    -21.56872797	     -7.03097898	     13.31371977	    -10.33322575	    -49.47957223	    -19.46052159	    -14.74997297	     69.82521744	     90.00021046	      9.35073217	     -9.67814092	     10.64371117	     97.97658556	     90.00021046
      0.32400000	     -7.37283156	     -5.35099322	      7.27345048	     -2.83565006	      1.00445062	      0.15635374	     47.66614049	     -3.22669039	    -22.30151729	     28.75235178	      0.50182321	     -5.85657595	      2.72395007	    -26.06318663	     -9.76770786	    -10.67993108	      2.99632088	    108.66802187	      1.89661477	    -18.27055455	     -5.58791437	    -21.12144318	     -8.08257490	     13.52944936	     -9.73925504	    -46.76494497	    -20.54739644	    -12.94942730	     70.65662266	     90.00021046	      7.74820207	     -9.36784049	     10.10242478	     92.92868483	     90.00021046
      0.32800000	     -6.97863501	     -5.31867942	      6.85569786	     -2.79964800	      1.00397099	      0.15680934	     46.20904455	     -2.92185489	    -23.50931488	     29.69129563	      0.51821087	     -5.95817636	      1.88690667	    -25.86437993	     -8.10801154	    -10.54556172	      2.99083393	    112.71730355	      1.96728807	    -17.43688140	     -7.06223540	    -20.77812438	     -9.12103436	     13.54151202	     -8.76661510	    -44.06778653	    -21.50556510	    -11.33326473	     71.48385670	     90.00021046	      6.49864775	     -9.00026344	      9.61621224	     87.41251948	     90.00021046
      0.33200000	     -6.62018663	     -5.22843170	      6.31869692	     -2.76356512	      1.00321381	      0.15737108	     44.81274703	     -2.62613762	    -24.32438496	     30.84732197	      0.53838733	     -6.06430282	      1.45502223	    -25.72613147	     -6.38135406	    -10.32944456	      2.92144413	    116.63890482	      2.03573293	    -16.16029759	     -8.45083112	    -20.62081428	    -10.16547585	     13.46143455	     -7.64454438	    -41.26396536	    -22.33591456	     -9.96275270	     72.25354861	     90.00021046	      5.36674434	     -8.69945839	      9.15714969	     81.94138507	     90.00021046
      0.33600000	     -6.53608614	     -5.56380305	      6.21630504	     -2.72738008	      1.00211586	      0.15756258	     43.58264546	     -2.30765501	    -25.44974563	     31.94101949	      0.55747596	     -6.24512538	      1.70404947	    -25.36683942	     -3.97865833	    -10.58286726	      3.44041549	    120.50984132	      2.10329351	    -15.42802828	     -9.52289328	    -19.49691297	    -10.64139929	     13.87384677	     -7.07218368	    -38.35735625	    -23.61836113	     -7.95987116	     72.75964829	     90.00021046	      4.37319171	     -8.14048663	      8.38024377	     75.80490639	     90.00021046
      0.34000000	     -6.25866570	     -5.64128859	      5.87379208	     -2.69108006	      1.00099951	      0.15800109	     42.12796498	     -1.99004915	    -25.91333633	     33.10037733	      0.57771057	     -6.45278865	      2.51271777	    -24.63626837	     -1.82880361	    -10.57974105	      3.69547807	    124.13393601	      2.16654590	    -14.14218410	    -10.10115302	    -14.55891110	    -11.39870696	     13.94462058	     -6.18183997	    -35.23590645	    -24.64932707	     -6.16459097	     73.27144165	     90.00021046	      3.59742427	     -7.67257454	      7.73050265	     69.53179530	     90.00021046
      0.34400000	     -6.27625323	     -5.94016859	      5.13649050	     -2.65513842	      0.99910390	      0.15951624	     40.99691038	     -1.00605997	    -25.52891167	     33.99995243	      0.59341112	     -6.53708943	      2.64572049	    -24.60192870	      0.62644141	    -10.78759983	      3.81325874	    127.61106659	      2.22723327	    -12.87461993	    -10.39079843	    -14.32260291	    -11.94767061	     14.09887467	     -4.70415283	    -32.19861925	    -25.56358868	     -4.54693297	     73.79553907	     90.00021046	      3.09032317	     -7.35523599	      7.45395613	     63.13359544	     90.00021046
      0.34800000	     -6.31819510	     -6.20131805	      4.38184998	     -2.61982701	      0.99717673	      0.16145733	     39.86745725	      0.14032177	    -24.61723155	     34.81179062	      0.60758036	     -6.32463742	      2.27401420	    -24.63938246	      3.39247752	    -11.18444262	      3.89973103	    130.98409260	      2.28610368	    -11.81329778	    -10.65420584	    -14.32305596	    -12.54926092	     14.12708548	     -3.28088140	    -28.79233063	    -26.42936811	     -2.75818964	     74.23103621	     90.00021046	      2.73841895	     -7.28485053	      7.40768524	     56.74317877	     90.00021046
